PathFileType  4	(X/Y/Z) C:\Users\antoi\Documents\MyRepositories\mobilecap\ResultsAnalysis
DataRate	CameraRate	NumFrames	NumMarkers	Units	OrigDataRate	OrigDataStartFrame	OrigNumFrames
100.0	100.0	4	51	mm	100.0	97	128
Frame#	Time	r_knee			r_shank_antsup			r_ankle			r_calc			r_5meta			r_toe			L_knee			L_shank_antsup			L_ankle			L_calc			L_5meta			L_toe			r_sh2			r_sh3			r_sh4			L_sh2			L_sh3			r_thigh1			r_thigh2			r_thigh3			r_thigh4			r_thigh5			L_thigh1			L_thigh2			L_thigh3			L_thigh4			r.ASIS			r.PSIS			L.ASIS			L.PSIS			C7			R_Shoulder			L_Shoulder			R_Sternum			L_Sternum			R_humerus			R_elbow_med			R_elbow_lat			R_forearm			R_wrist_radius			R_wrist_ulna			L_humerus			L_elbow_med			L_elbow_lat			L_forearm			L_wrist_radius			L_wrist_ulna			R_HJC			L_HJC			R_HJC_reg			L_HJC_reg			
		X1	Y1	Z1	X2	Y2	Z2	X3	Y3	Z3	X4	Y4	Z4	X5	Y5	Z5	X6	Y6	Z6	X7	Y7	Z7	X8	Y8	Z8	X9	Y9	Z9	X10	Y10	Z10	X11	Y11	Z11	X12	Y12	Z12	X13	Y13	Z13	X14	Y14	Z14	X15	Y15	Z15	X16	Y16	Z16	X17	Y17	Z17	X18	Y18	Z18	X19	Y19	Z19	X20	Y20	Z20	X21	Y21	Z21	X22	Y22	Z22	X23	Y23	Z23	X24	Y24	Z24	X25	Y25	Z25	X26	Y26	Z26	X27	Y27	Z27	X28	Y28	Z28	X29	Y29	Z29	X30	Y30	Z30	X31	Y31	Z31	X32	Y32	Z32	X33	Y33	Z33	X34	Y34	Z34	X35	Y35	Z35	X36	Y36	Z36	X37	Y37	Z37	X38	Y38	Z38	X39	Y39	Z39	X40	Y40	Z40	X41	Y41	Z41	X42	Y42	Z42	X43	Y43	Z43	X44	Y44	Z44	X45	Y45	Z45	X46	Y46	Z46	X47	Y47	Z47	X48	Y48	Z48	X49	Y49	Z49	X50	Y50	Z50	X51	Y51	Z51	

97	0.96000000	1245.10499	502.84171	-70.06600	1311.63564	462.42565	-80.56050	1395.68676	125.33159	-63.24400	1350.88767	62.39136	-97.36950	1517.66126	116.41600	-31.84393	1546.31430	164.41765	-86.66809	976.63219	489.06761	-383.10109	977.39405	387.41870	-389.20682	817.66504	112.94157	-371.34168	740.74688	79.73418	-328.74770	910.32394	41.18851	-411.43688	953.50933	60.16060	-354.27489	1334.15212	351.45312	-50.86662	1232.66520	442.77548	-58.67624	1260.56989	333.40068	-50.33089	896.29139	425.73570	-397.10054	855.46323	310.17508	-402.58595	1164.72928	809.55635	-48.85445	1206.40018	703.28665	-51.81759	1157.58350	661.52054	-29.08908	1058.37148	766.68512	-46.19806	1105.26919	658.89163	-50.74448	1075.99298	739.66609	-428.42542	1051.50934	607.25880	-401.53616	969.00002	762.75770	-392.93279	947.98790	624.74903	-376.03968	1151.79555	953.59647	-104.57242	967.48453	987.62218	-187.38854	1170.49133	930.25211	-353.72012	965.36763	993.64938	-287.89329	986.33192	1401.51993	-308.08748	1056.31306	1387.54082	-113.80742	1088.98206	1338.18360	-465.40109	1119.45695	1363.10745	-262.79878	1130.20116	1357.66413	-305.65422	1029.43691	1273.48740	-23.86914	947.90514	1064.93038	-24.92741	949.88026	1100.05913	41.51115	1062.11556	1015.59171	78.89998	1148.61616	912.78469	104.53292	1124.66045	900.57353	127.35703	1137.44618	1227.18581	-508.34092	1143.34680	989.24786	-449.82467	1180.19606	1017.50572	-515.35131	1280.72672	976.27510	-475.66331	1399.87205	878.68024	-435.12173	1385.25221	859.10845	-461.63284	1076.40509	872.68043	-125.10739	1084.24509	862.41658	-331.17535	1092.12728	860.58877	-142.27862	1088.64643	870.50127	-307.56342	
98	0.97000000	1257.36135	501.06853	-68.72373	1324.03729	460.51876	-79.58973	1407.31813	123.58312	-60.92936	1362.95866	60.33628	-94.99617	1528.99666	115.52369	-28.53165	1557.87119	163.15065	-83.53828	983.16043	488.08104	-382.74931	982.60242	386.35361	-388.97588	818.85797	114.34311	-371.46413	741.55682	81.82152	-328.98977	910.57409	41.11673	-411.57153	953.91989	59.75868	-354.47860	1346.59775	349.73433	-49.36026	1245.32071	441.16183	-56.79688	1273.02499	331.77985	-48.13243	902.11384	425.90473	-396.84177	859.61317	310.89098	-402.46018	1176.20340	807.48771	-47.78986	1218.06531	701.28355	-50.64019	1169.14283	659.40363	-28.30162	1070.05228	764.65696	-45.53900	1117.03771	657.60005	-49.49287	1085.05203	737.68383	-427.98704	1059.11944	605.54415	-401.23169	978.72490	762.03694	-391.20297	955.93135	624.16732	-375.05148	1164.07451	950.66725	-103.14224	979.48903	985.13668	-185.55934	1181.99984	927.64924	-352.57792	977.17878	991.31660	-286.10810	998.78491	1399.39473	-304.47866	1068.56626	1384.03586	-110.13936	1101.98405	1336.97836	-462.17605	1132.07502	1360.47135	-259.25416	1142.80835	1355.29150	-302.24464	1040.71824	1269.57243	-21.08626	959.59153	1060.83833	-23.54127	960.85275	1095.83215	42.92616	1072.33311	1010.70980	81.30505	1158.00284	907.39614	107.41019	1133.71273	895.17557	129.90169	1151.18656	1226.54945	-505.60071	1157.76171	988.08542	-449.29215	1195.14413	1017.34414	-514.05542	1295.44838	976.05463	-473.70428	1414.66152	878.76188	-433.06194	1400.36245	859.26705	-459.86701	1088.42180	869.91634	-123.72613	1095.71298	859.93394	-329.82845	1104.04348	857.74572	-140.90648	1100.24317	867.91249	-306.30283	
99	0.98000000	1270.30338	499.48261	-67.15105	1336.51056	458.15680	-78.37097	1416.12274	120.74411	-59.27160	1371.70827	58.14330	-93.71265	1537.42580	112.15708	-25.83467	1567.10042	159.47852	-80.62753	990.46720	486.95256	-382.23579	988.42674	385.15666	-388.60595	820.26362	115.97657	-371.59604	742.52428	84.33803	-329.23420	910.87283	41.06509	-411.69768	954.45261	59.33498	-354.68713	1358.16238	347.28774	-47.94510	1257.89718	439.66800	-54.85826	1284.46215	330.05029	-46.17840	908.65619	426.06892	-396.43617	864.30005	311.72666	-402.22449	1188.56632	806.02269	-46.94627	1230.83492	699.97623	-49.51647	1182.08791	658.03806	-27.05583	1082.74936	763.04430	-44.20513	1130.03696	656.70775	-47.50533	1094.42268	735.73708	-427.34074	1067.28502	603.79738	-400.78312	988.63252	761.12070	-389.37711	964.44439	623.36243	-373.92088	1176.51018	947.88508	-101.73611	991.65363	982.87927	-183.63171	1193.48307	925.05299	-351.49442	989.09491	989.11327	-284.20563	1011.36526	1397.39756	-300.67838	1081.05344	1380.62457	-106.34199	1114.99146	1335.92487	-458.80348	1144.87077	1357.91118	-255.57871	1155.54698	1353.00075	-298.70583	1052.33814	1265.76159	-18.19446	971.74535	1056.80781	-22.05202	972.28754	1091.62576	44.46213	1083.01177	1005.80037	83.74387	1167.81193	901.91606	110.22825	1143.18316	889.70565	132.38266	1164.77390	1225.99999	-502.76089	1171.99825	987.09536	-448.41456	1209.76214	1017.24285	-512.59168	1309.86070	975.73284	-471.70356	1428.98261	878.46658	-431.14281	1414.97739	859.12389	-458.27642	1100.56659	867.33174	-122.26998	1107.14126	857.51416	-328.40487	1116.01381	855.11550	-139.44189	1111.80135	865.37777	-304.98123	
100	0.99000000	1283.66733	498.05296	-65.42613	1348.89077	455.47889	-76.91238	1422.74000	117.16537	-58.09445	1377.73710	56.16659	-93.23250	1543.61151	106.71168	-23.77789	1574.57052	153.73958	-78.05852	998.53040	485.74131	-381.52739	994.86161	383.88637	-388.07173	821.92676	117.89631	-371.73480	743.67703	87.35200	-329.47489	911.23004	41.05008	-411.81462	955.10430	58.88630	-354.89370	1368.87203	344.29401	-46.60676	1270.18403	438.24226	-53.04608	1294.94177	328.23085	-44.57673	915.89749	426.27398	-395.84974	869.51334	312.72943	-401.85123	1201.79106	805.09300	-46.25300	1244.56730	699.23954	-48.41354	1196.21963	657.34380	-25.37887	1096.35010	761.87496	-42.18861	1144.04712	656.08633	-44.94383	1104.18564	733.84875	-426.45377	1076.03702	602.03918	-400.14279	998.80505	760.05981	-387.48364	973.56200	622.38968	-372.61310	1189.14583	945.33657	-100.34247	1004.01488	980.90062	-181.59840	1205.01314	922.49400	-350.43712	1001.17035	987.06229	-282.17699	1024.08282	1395.56492	-296.69088	1093.79322	1377.33107	-102.41417	1128.01138	1335.08140	-455.29764	1157.83709	1355.47495	-251.78018	1168.42984	1350.84267	-295.03202	1064.33280	1262.07157	-15.18483	984.33512	1052.88810	-20.46162	984.16502	1087.48394	46.12489	1094.15340	1000.91700	86.20013	1178.06237	896.41191	112.95741	1153.11038	884.22833	134.77564	1178.20550	1225.58918	-499.78594	1185.99978	986.31221	-447.20543	1223.98826	1017.22086	-510.96563	1323.91076	975.35284	-469.67928	1442.77032	877.83911	-429.36885	1429.07668	858.75204	-456.84402	1112.89608	865.00025	-120.70209	1118.60025	855.18561	-326.86375	1128.08704	852.77961	-137.85761	1123.39889	862.93222	-303.56599	
